<svg id="Ebene_1" data-name="Ebene 1" xmlns="http://www.w3.org/2000/svg" viewBox="0 0 589 589"><defs><style>.cls-1{fill:#fff;}.cls-2{fill:#5b687b;}.cls-3{fill:#738298;}</style></defs><title>logo</title><g id="Logo"><circle class="cls-1" cx="294.5" cy="294.5" r="294.5"/><g id="Kamera"><path class="cls-2" d="M374.62,309.44a12.89,12.89,0,0,1,.08-20l43.14-35.17,77.42-58.73c8.84-6.71,21.74-.58,21.74,10.34V394c0,10.95-13,17.08-21.8,10.31L414,342Z" transform="translate(-5 -5)"/><rect class="cls-2" x="78" y="174" width="336.12" height="242" rx="12" ry="12"/></g><g id="Bildschirm"><ellipse class="cls-3" cx="246.16" cy="377.41" rx="58.35" ry="14.03"/><path class="cls-3" d="M237.13,322.43h18.07a1.63,1.63,0,0,1,1.63,1.63v48.37a1.62,1.62,0,0,1-1.62,1.62H237.13a1.63,1.63,0,0,1-1.63-1.63V324.06A1.63,1.63,0,0,1,237.13,322.43Z"/><rect class="cls-3" x="139" y="199" width="214.32" height="127.92" rx="6.71" ry="6.71"/></g></g></svg>