<?xml version="1.0" encoding="utf-8"?>
<!-- Generator: Adobe Illustrator 22.0.1, SVG Export Plug-In . SVG Version: 6.00 Build 0)  -->
<svg version="1.1" id="Ebene_1" xmlns="http://www.w3.org/2000/svg" xmlns:xlink="http://www.w3.org/1999/xlink" x="0px" y="0px"
	 viewBox="0 0 600 600" style="enable-background:new 0 0 600 600;" xml:space="preserve">
<style type="text/css">
	.st0{fill-rule:evenodd;clip-rule:evenodd;fill:#FFFFFF;}
</style>
<path class="st0" d="M577,165H23.5c-6.6,0-12-5.4-12-12V92.5c0-6.6,5.4-12,12-12H577c6.6,0,12,5.4,12,12V153
	C589,159.6,583.6,165,577,165z"/>
<path class="st0" d="M577,342H23.5c-6.6,0-12-5.4-12-12v-60.5c0-6.6,5.4-12,12-12H577c6.6,0,12,5.4,12,12V330
	C589,336.6,583.6,342,577,342z"/>
<path class="st0" d="M577,519H23.5c-6.6,0-12-5.4-12-12v-60.5c0-6.6,5.4-12,12-12H577c6.6,0,12,5.4,12,12V507
	C589,513.6,583.6,519,577,519z"/>
</svg>
