<?xml version="1.0" encoding="utf-8"?>
<!-- Generator: Adobe Illustrator 22.0.1, SVG Export Plug-In . SVG Version: 6.00 Build 0)  -->
<svg version="1.1" id="Ebene_1" xmlns="http://www.w3.org/2000/svg" xmlns:xlink="http://www.w3.org/1999/xlink" x="0px" y="0px"
	 viewBox="0 0 25 30" style="enable-background:new 0 0 25 30;" xml:space="preserve">
<style type="text/css">
	.st0{fill:none;stroke:#FFFFFF;stroke-width:0.5;stroke-miterlimit:10;}
	.st1{fill:#FFFFFF;}
</style>
<g>
	<path class="st0" d="M4.6,7l2.3,20.6h11.4C19.1,20.8,20.6,7,20.6,7H4.6z"/>
	<polygon class="st0" points="4.5,4.6 4.5,6.7 20.6,6.7 20.6,4.8 14.5,4.7 14.5,3.3 10.5,3.3 10.5,4.6 	"/>
	<path class="st0" d="M12.4,8.2"/>
	<path class="st1" d="M16.7,26.6L16.7,26.6c-0.2,0-0.4-0.2-0.4-0.5l1.3-16.5c0-0.2,0.2-0.4,0.5-0.4h0c0.2,0,0.4,0.2,0.4,0.5
		l-1.3,16.5C17.1,26.5,16.9,26.7,16.7,26.6z"/>
	<path class="st1" d="M11.4,26.6L11.4,26.6c-0.2,0-0.4-0.2-0.5-0.4L10.3,9.6c0-0.2,0.2-0.5,0.4-0.5h0c0.2,0,0.4,0.2,0.5,0.4
		l0.7,16.6C11.8,26.4,11.6,26.6,11.4,26.6z"/>
	<path class="st1" d="M14,26.6L14,26.6c-0.2,0-0.4-0.2-0.4-0.5l0.5-16.6c0-0.2,0.2-0.4,0.5-0.4h0c0.2,0,0.4,0.2,0.4,0.5l-0.5,16.6
		C14.4,26.4,14.2,26.6,14,26.6z"/>
	<path class="st1" d="M8.6,26.6L8.6,26.6c-0.2,0-0.5-0.2-0.5-0.4L6.7,9.7c0-0.2,0.2-0.5,0.4-0.5h0c0.2,0,0.5,0.2,0.5,0.4L9,26.2
		C9,26.4,8.8,26.6,8.6,26.6z"/>
</g>
</svg>
